<svg width="349" height="80" viewBox="0 0 349 80" fill="none" xmlns="http://www.w3.org/2000/svg">
<path d="M97 62.9274V16H132.407V24.4469H107.174V34.6369H126.249V42.9497H107.174V54.4804H132.407V62.9274H97Z" fill="#141C29"/>
<path d="M139.005 62.9274V29.4078H148.242V34.5698C150.74 30.4581 154.332 28.4022 159.018 28.4022C162.677 28.4022 165.421 29.4525 167.25 31.5531C169.124 33.6536 170.062 36.6257 170.062 40.4693V62.9274H160.557V42.5475C160.557 38.3464 158.772 36.2458 155.203 36.2458C153.195 36.2458 151.7 36.8492 150.718 38.0559C149.246 39.8436 148.509 42.838 148.509 47.0391V62.9274H139.005Z" fill="#141C29"/>
<path d="M177.001 54.3464C177.046 52.1564 177.581 50.257 178.607 48.648C179.634 47.0391 181.106 45.743 183.025 44.7598C184.988 43.7765 187.152 43.0168 189.517 42.4804C191.927 41.8994 194.76 41.4525 198.018 41.1397V39.8659C198.018 36.7821 196.188 35.2402 192.529 35.2402C188.469 35.2402 186.014 37.0056 185.167 40.5363L176.599 38.6592C176.867 35.8436 178.429 33.4302 181.285 31.419C184.185 29.4078 187.911 28.4022 192.462 28.4022C197.281 28.4022 200.963 29.4972 203.506 31.6872C206.094 33.8771 207.388 37.1173 207.388 41.4078V53.676C207.388 54.5698 207.5 55.1285 207.723 55.352C207.946 55.5754 208.504 55.6872 209.396 55.6872H212.341V62.9274H205.045C201.387 62.9274 199.379 61.2961 199.022 58.0335C196.434 62.0112 192.618 64 187.576 64C184.542 64 182.021 63.1061 180.013 61.3184C178.005 59.5307 177.001 57.2067 177.001 54.3464ZM198.018 49.1844V47.0391C194.18 47.5307 191.324 48.2235 189.45 49.1173C187.576 50.0112 186.639 51.4413 186.639 53.4078C186.639 55.8212 188.089 57.0279 190.99 57.0279C192.998 57.0279 194.671 56.3575 196.01 55.0168C197.348 53.676 198.018 51.7318 198.018 49.1844Z" fill="#141C29"/>
<path d="M226.612 58.4358V62.9274H217.376V16H226.88V28.1341V33.8994C227.862 32.4246 229.29 31.1508 231.164 30.0782C233.082 28.9609 235.291 28.4022 237.79 28.4022C242.163 28.4022 245.666 30.0335 248.298 33.2961C250.931 36.514 252.247 40.8045 252.247 46.1676C252.247 51.486 250.909 55.7989 248.231 59.1061C245.599 62.3687 242.096 64 237.723 64C235.224 64 233.015 63.486 231.097 62.4581C229.178 61.3855 227.683 60.0447 226.612 58.4358ZM234.443 56.7598C239.664 56.7598 242.274 53.2291 242.274 46.1676C242.274 39.1061 239.664 35.5754 234.443 35.5754C231.989 35.5754 230.048 36.4916 228.62 38.324C227.192 40.1564 226.478 42.771 226.478 46.1676C226.478 49.5642 227.192 52.1788 228.62 54.0112C230.048 55.8436 231.989 56.7598 234.443 56.7598Z" fill="#141C29"/>
<path d="M259.339 62.9274V16H268.843V62.9274H259.339Z" fill="#141C29"/>
<path d="M275.889 46.1006C275.889 40.9609 277.496 36.7374 280.708 33.4302C283.921 30.0782 287.959 28.4022 292.823 28.4022C297.865 28.4022 301.837 30.0559 304.737 33.3631C307.637 36.6704 309.088 40.9385 309.088 46.1676C309.088 47.1955 309.065 47.9553 309.021 48.4469H285.394C285.528 51.1732 286.264 53.2514 287.602 54.6816C288.941 56.067 290.704 56.7598 292.89 56.7598C296.371 56.7598 298.959 54.8156 300.654 50.9274L309.155 54.2123C307.994 56.8939 306.12 59.2179 303.532 61.1844C300.989 63.0615 297.441 64 292.89 64C287.759 64 283.631 62.3911 280.508 59.1732C277.429 55.9106 275.889 51.5531 275.889 46.1006ZM285.728 41.743H299.65C299.159 37.4078 296.884 35.2402 292.823 35.2402C290.904 35.2402 289.32 35.7989 288.071 36.9162C286.822 38.0335 286.041 39.6425 285.728 41.743Z" fill="#141C29"/>
<path d="M314.128 46.1676C314.128 40.8045 315.445 36.514 318.077 33.2961C320.71 30.0335 324.235 28.4022 328.653 28.4022C331.062 28.4022 333.204 28.9385 335.078 30.0112C336.997 31.0391 338.469 32.3352 339.496 33.8994V28.1341V16H349V62.9274H339.763V58.4358C338.782 59.9106 337.287 61.2067 335.279 62.324C333.316 63.4413 331.107 64 328.653 64C324.235 64 320.71 62.3687 318.077 59.1061C315.445 55.7989 314.128 51.486 314.128 46.1676ZM337.755 54.0112C339.183 52.1788 339.897 49.5642 339.897 46.1676C339.897 42.771 339.183 40.1564 337.755 38.324C336.372 36.4916 334.453 35.5754 331.999 35.5754C326.734 35.5754 324.101 39.1061 324.101 46.1676C324.101 53.2291 326.734 56.7598 331.999 56.7598C334.453 56.7598 336.372 55.8436 337.755 54.0112Z" fill="#141C29"/>
<rect width="80" height="80" rx="22" fill="#141C29"/>
<path fill-rule="evenodd" clip-rule="evenodd" d="M30.857 25.0922C32.597 24.9922 34.335 25.0002 36.075 25.0002C36.087 25.0002 44.892 25.0002 44.892 25.0002C46.666 25.0002 48.404 24.9922 50.143 25.0922C51.724 25.1822 53.264 25.3742 54.797 25.8032C58.024 26.7052 60.842 28.5892 62.879 31.2602C64.904 33.9142 66 37.1632 66 40.4992C66 43.8392 64.904 47.0862 62.879 49.7402C60.842 52.4102 58.024 54.2952 54.797 55.1972C53.264 55.6262 51.724 55.8172 50.143 55.9082C48.404 56.0082 46.666 55.9992 44.926 55.9992C44.914 55.9992 36.107 56.0002 36.107 56.0002C34.335 55.9992 32.597 56.0082 30.857 55.9082C29.277 55.8172 27.737 55.6262 26.204 55.1972C22.977 54.2952 20.159 52.4102 18.122 49.7402C16.097 47.0862 15 43.8392 15 40.5002C15 37.1632 16.097 33.9142 18.122 31.2602C20.159 28.5892 22.977 26.7052 26.204 25.8032C27.737 25.3742 29.277 25.1822 30.857 25.0922Z" fill="#3480C7"/>
<g filter="url(#filter0_dd_210_148)">
<path fill-rule="evenodd" clip-rule="evenodd" d="M50.5 54C57.9558 54 64 47.9558 64 40.5C64 33.0442 57.9558 27 50.5 27C43.0442 27 37 33.0442 37 40.5C37 47.9558 43.0442 54 50.5 54Z" fill="white"/>
</g>
<defs>
<filter id="filter0_dd_210_148" x="29" y="22" width="43" height="43" filterUnits="userSpaceOnUse" color-interpolation-filters="sRGB">
<feFlood flood-opacity="0" result="BackgroundImageFix"/>
<feColorMatrix in="SourceAlpha" type="matrix" values="0 0 0 0 0 0 0 0 0 0 0 0 0 0 0 0 0 0 127 0" result="hardAlpha"/>
<feOffset dy="3"/>
<feGaussianBlur stdDeviation="0.5"/>
<feColorMatrix type="matrix" values="0 0 0 0 0 0 0 0 0 0 0 0 0 0 0 0 0 0 0.06 0"/>
<feBlend mode="normal" in2="BackgroundImageFix" result="effect1_dropShadow_210_148"/>
<feColorMatrix in="SourceAlpha" type="matrix" values="0 0 0 0 0 0 0 0 0 0 0 0 0 0 0 0 0 0 127 0" result="hardAlpha"/>
<feOffset dy="3"/>
<feGaussianBlur stdDeviation="4"/>
<feColorMatrix type="matrix" values="0 0 0 0 0 0 0 0 0 0 0 0 0 0 0 0 0 0 0.15 0"/>
<feBlend mode="normal" in2="effect1_dropShadow_210_148" result="effect2_dropShadow_210_148"/>
<feBlend mode="normal" in="SourceGraphic" in2="effect2_dropShadow_210_148" result="shape"/>
</filter>
</defs>
</svg>
